<svg width="27" height="18" viewBox="0 0 27 18" fill="none" xmlns="http://www.w3.org/2000/svg">
<rect width="27" height="18" rx="2" fill="#0064FF"/>
<path d="M6.1778 7.925V5.126H12.8648V6.098H7.3748V6.953H12.9098V7.925H10.0928V8.672H13.2428V9.653H5.7998V8.672H8.8958V7.925H6.1778ZM6.1778 11.246V10.265H12.8648V12.857H11.6678V11.246H6.1778Z" fill="white"/>
<path d="M16.3373 6.143C16.3193 6.257 16.3013 6.371 16.2833 6.485C16.2653 6.593 16.2443 6.701 16.2203 6.809C16.4603 7.163 16.7573 7.493 17.1113 7.799C17.4653 8.099 17.8493 8.354 18.2633 8.564L17.5523 9.428C17.2163 9.242 16.8953 9.023 16.5893 8.771C16.2833 8.519 16.0103 8.249 15.7703 7.961C15.5783 8.303 15.3503 8.615 15.0863 8.897C14.8283 9.173 14.5403 9.41 14.2223 9.608C14.0783 9.488 13.9343 9.365 13.7903 9.239C13.6463 9.113 13.5023 8.987 13.3583 8.861C13.8623 8.555 14.2673 8.177 14.5733 7.727C14.8853 7.277 15.0833 6.749 15.1673 6.143H13.7003V5.126H17.8763V6.143H16.3373ZM20.4233 9.842V12.731H13.9523V9.842H20.4233ZM15.1493 11.741H19.2353V10.832H15.1493V11.741ZM20.4233 5V9.608H19.2353V7.682H17.7233V6.656H19.2353V5H20.4233Z" fill="white"/>
</svg>
